<?xml version="1.0" encoding="utf-8"?>
<!-- Generator: Adobe Illustrator 16.0.0, SVG Export Plug-In . SVG Version: 6.00 Build 0)  -->
<!DOCTYPE svg PUBLIC "-//W3C//DTD SVG 1.1//EN" "http://www.w3.org/Graphics/SVG/1.1/DTD/svg11.dtd">
<svg version="1.1" id="Capa_1" xmlns="http://www.w3.org/2000/svg" xmlns:xlink="http://www.w3.org/1999/xlink" x="0px" y="0px"
	 width="465.199px" height="461.825px" viewBox="0 0 465.199 461.825" enable-background="new 0 0 465.199 461.825"
	 xml:space="preserve">
<g>
	<defs>
		<rect id="SVGID_3_" width="469.675" height="459.81"/>
	</defs>
	<clipPath id="SVGID_2_">
		<use xlink:href="#SVGID_3_"  overflow="visible"/>
	</clipPath>
	<path clip-path="url(#SVGID_2_)" d="M5.721,160.702l222.951,138.801c1.875,1.185,4.045,1.776,6.215,1.776
		c2.17,0,4.34-0.592,6.215-1.776l222.951-138.801c3.453-2.17,5.623-5.918,5.623-10.062c0-4.044-2.072-7.892-5.623-10.062
		L241.102,1.775c-3.847-2.368-8.681-2.368-12.528,0L5.623,140.578c-3.452,2.17-5.624,5.919-5.624,10.062
		C0.1,154.783,2.17,158.532,5.721,160.702 M234.887,25.748L435.443,150.64L234.887,275.53L34.331,150.64L234.887,25.748z"/>
	<path clip-path="url(#SVGID_2_)" d="M457.837,218.117c-3.157,0-6.215,1.282-8.385,3.453S446,226.798,446,229.955
		c0,3.158,1.282,6.215,3.453,8.386c2.17,2.169,5.229,3.452,8.385,3.452s6.215-1.283,8.385-3.452c2.17-2.171,3.453-5.229,3.453-8.386
		c0-3.157-1.283-6.215-3.453-8.385C464.052,219.399,460.994,218.117,457.837,218.117"/>
	<path clip-path="url(#SVGID_2_)" d="M414.431,243.075c-5.525,3.453-7.3,10.753-3.749,16.276c2.269,3.552,6.116,5.623,10.062,5.623
		c2.17,0,4.341-0.592,6.215-1.775c5.524-3.452,7.202-10.753,3.749-16.276C427.255,241.299,419.956,239.623,414.431,243.075"/>
	<path clip-path="url(#SVGID_2_)" d="M302.956,312.426c-5.524,3.453-7.3,10.753-3.749,16.277c2.269,3.65,6.116,5.623,10.062,5.623
		c2.17,0,4.341-0.592,6.215-1.775c5.525-3.453,7.203-10.753,3.75-16.277C315.78,310.749,308.48,308.974,302.956,312.426"/>
	<path clip-path="url(#SVGID_2_)" d="M265.765,335.608c-5.524,3.453-7.201,10.753-3.749,16.277
		c2.269,3.651,6.116,5.624,10.062,5.624c2.171,0,4.341-0.592,6.215-1.775c5.525-3.454,7.202-10.754,3.749-16.278
		C278.589,333.833,271.388,332.156,265.765,335.608"/>
	<path clip-path="url(#SVGID_2_)" d="M340.147,289.341c-5.524,3.454-7.3,10.755-3.847,16.278c2.269,3.65,6.117,5.623,10.063,5.623
		c2.17,0,4.34-0.592,6.215-1.775c5.524-3.452,7.201-10.753,3.749-16.277C352.972,287.565,345.672,285.89,340.147,289.341"/>
	<path clip-path="url(#SVGID_2_)" d="M377.24,266.258c-5.525,3.452-7.202,10.754-3.75,16.276c2.27,3.553,6.116,5.623,10.063,5.623
		c2.17,0,4.341-0.592,6.215-1.774c5.524-3.452,7.202-10.754,3.749-16.278C390.064,264.481,382.863,262.805,377.24,266.258"/>
	<path clip-path="url(#SVGID_2_)" d="M226.502,360.369c-2.171,2.172-3.453,5.229-3.453,8.387s1.282,6.215,3.453,8.386
		c2.17,2.17,5.229,3.452,8.386,3.452c3.157,0,6.215-1.282,8.385-3.452c2.169-2.171,3.453-5.229,3.453-8.386
		s-1.283-6.215-3.453-8.387c-2.17-2.169-5.229-3.451-8.385-3.451C231.73,356.918,228.771,358.2,226.502,360.369"/>
	<path clip-path="url(#SVGID_2_)" d="M187.633,339.357c-3.452,5.524-1.775,12.824,3.75,16.276c1.973,1.186,4.144,1.777,6.215,1.777
		c3.947,0,7.793-1.975,10.063-5.623c3.452-5.525,1.775-12.825-3.848-16.278C198.386,332.156,191.086,333.833,187.633,339.357"/>
	<path clip-path="url(#SVGID_2_)" d="M39.065,246.824c-3.453,5.523-1.776,12.823,3.749,16.276c1.973,1.184,4.145,1.775,6.216,1.775
		c3.946,0,7.793-1.973,10.063-5.623c3.452-5.524,1.775-12.823-3.749-16.276C49.819,239.524,42.518,241.299,39.065,246.824"/>
	<path clip-path="url(#SVGID_2_)" d="M150.541,316.273c-3.453,5.524-1.776,12.824,3.749,16.277c1.973,1.184,4.144,1.775,6.215,1.775
		c3.946,0,7.793-1.973,10.063-5.623c3.453-5.524,1.775-12.824-3.749-16.276C161.294,308.974,153.994,310.749,150.541,316.273"/>
	<path clip-path="url(#SVGID_2_)" d="M113.35,293.091c-3.454,5.524-1.777,12.824,3.748,16.277c1.974,1.184,4.144,1.775,6.215,1.775
		c3.947,0,7.794-1.973,10.063-5.623c3.454-5.524,1.775-12.824-3.848-16.276C124.103,285.89,116.802,287.565,113.35,293.091"/>
	<path clip-path="url(#SVGID_2_)" d="M76.158,270.006c-3.452,5.524-1.775,12.824,3.749,16.278c1.974,1.183,4.144,1.774,6.215,1.774
		c3.946,0,7.793-1.972,10.063-5.623c3.453-5.524,1.775-12.824-3.749-16.276C86.912,262.805,79.611,264.481,76.158,270.006"/>
	<path clip-path="url(#SVGID_2_)" d="M11.937,241.792c3.157,0,6.215-1.282,8.386-3.452c2.169-2.171,3.453-5.229,3.453-8.385
		s-1.283-6.215-3.453-8.386c-2.171-2.17-5.229-3.453-8.386-3.453s-6.215,1.283-8.385,3.453c-2.17,2.17-3.453,5.229-3.453,8.386
		s1.283,6.214,3.453,8.385C5.82,240.608,8.78,241.792,11.937,241.792"/>
	<path clip-path="url(#SVGID_2_)" d="M451.623,299.207L234.887,434.161L18.151,299.207c-5.524-3.452-12.824-1.775-16.277,3.749
		c-3.453,5.524-1.776,12.824,3.749,16.277l222.95,138.801c1.875,1.184,4.045,1.775,6.215,1.775c2.17,0,4.341-0.592,6.215-1.775
		l222.951-138.801c5.525-3.453,7.201-10.753,3.749-16.277C464.447,297.432,457.147,295.755,451.623,299.207"/>
</g>
</svg>
