<?xml version="1.0" encoding="utf-8"?>
<!-- Generator: Adobe Illustrator 21.0.0, SVG Export Plug-In . SVG Version: 6.00 Build 0)  -->
<svg version="1.1" id="Capa_1" xmlns="http://www.w3.org/2000/svg" xmlns:xlink="http://www.w3.org/1999/xlink" x="0px" y="0px"
	 viewBox="0 0 465.2 461.8" style="enable-background:new 0 0 465.2 461.8;" xml:space="preserve">
<style type="text/css">
	.st0{fill:#FFFFFF;}
</style>
<path class="st0" d="M5.7,163.6L226.5,301c1.9,1.2,4,1.8,6.2,1.8s4.3-0.6,6.2-1.8l220.8-137.5c3.4-2.1,5.6-5.9,5.6-10
	c0-4-2.1-7.8-5.6-10L238.8,6.1c-3.8-2.3-8.6-2.3-12.4,0L5.6,143.6c-3.4,2.1-5.6,5.9-5.6,10C0.1,157.7,2.1,161.4,5.7,163.6
	 M232.6,29.9l198.6,123.7L232.6,277.3L34,153.6L232.6,29.9z"/>
<path class="st0" d="M453.5,220.4c-3.1,0-6.2,1.3-8.3,3.4c-2.1,2.2-3.4,5.2-3.4,8.3c0,3.1,1.3,6.2,3.4,8.3c2.1,2.1,5.2,3.4,8.3,3.4
	c3.1,0,6.2-1.3,8.3-3.4c2.1-2.2,3.4-5.2,3.4-8.3s-1.3-6.2-3.4-8.3C459.6,221.7,456.6,220.4,453.5,220.4"/>
<path class="st0" d="M410.5,245.1c-5.5,3.4-7.2,10.7-3.7,16.1c2.2,3.5,6.1,5.6,10,5.6c2.1,0,4.3-0.6,6.2-1.8
	c5.5-3.4,7.1-10.7,3.7-16.1C423.2,243.4,416,241.7,410.5,245.1"/>
<path class="st0" d="M300.1,313.8c-5.5,3.4-7.2,10.7-3.7,16.1c2.2,3.6,6.1,5.6,10,5.6c2.1,0,4.3-0.6,6.2-1.8
	c5.5-3.4,7.1-10.7,3.7-16.1C312.8,312.2,305.5,310.4,300.1,313.8"/>
<path class="st0" d="M263.2,336.8c-5.5,3.4-7.1,10.7-3.7,16.1c2.2,3.6,6.1,5.6,10,5.6c2.2,0,4.3-0.6,6.2-1.8
	c5.5-3.4,7.1-10.7,3.7-16.1C275.9,335,268.8,333.4,263.2,336.8"/>
<path class="st0" d="M336.9,291c-5.5,3.4-7.2,10.7-3.8,16.1c2.2,3.6,6.1,5.6,10,5.6c2.1,0,4.3-0.6,6.2-1.8
	c5.5-3.4,7.1-10.7,3.7-16.1C349.6,289.2,342.4,287.5,336.9,291"/>
<path class="st0" d="M373.6,268.1c-5.5,3.4-7.1,10.7-3.7,16.1c2.2,3.5,6.1,5.6,10,5.6c2.1,0,4.3-0.6,6.2-1.8
	c5.5-3.4,7.1-10.7,3.7-16.1C386.3,266.3,379.2,264.7,373.6,268.1"/>
<path class="st0" d="M224.3,361.3c-2.2,2.2-3.4,5.2-3.4,8.3s1.3,6.2,3.4,8.3c2.1,2.1,5.2,3.4,8.3,3.4c3.1,0,6.2-1.3,8.3-3.4
	c2.1-2.2,3.4-5.2,3.4-8.3s-1.3-6.2-3.4-8.3c-2.1-2.1-5.2-3.4-8.3-3.4C229.5,357.9,226.6,359.2,224.3,361.3"/>
<path class="st0" d="M185.8,340.5c-3.4,5.5-1.8,12.7,3.7,16.1c2,1.2,4.1,1.8,6.2,1.8c3.9,0,7.7-2,10-5.6c3.4-5.5,1.8-12.7-3.8-16.1
	C196.5,333.4,189.3,335,185.8,340.5"/>
<path class="st0" d="M38.7,248.9c-3.4,5.5-1.8,12.7,3.7,16.1c2,1.2,4.1,1.8,6.2,1.8c3.9,0,7.7-2,10-5.6c3.4-5.5,1.8-12.7-3.7-16.1
	C49.3,241.6,42.1,243.4,38.7,248.9"/>
<path class="st0" d="M149.1,317.6c-3.4,5.5-1.8,12.7,3.7,16.1c2,1.2,4.1,1.8,6.2,1.8c3.9,0,7.7-2,10-5.6c3.4-5.5,1.8-12.7-3.7-16.1
	C159.8,310.4,152.5,312.2,149.1,317.6"/>
<path class="st0" d="M112.3,294.7c-3.4,5.5-1.8,12.7,3.7,16.1c2,1.2,4.1,1.8,6.2,1.8c3.9,0,7.7-2,10-5.6c3.4-5.5,1.8-12.7-3.8-16.1
	C122.9,287.5,115.7,289.2,112.3,294.7"/>
<path class="st0" d="M75.4,271.8c-3.4,5.5-1.8,12.7,3.7,16.1c2,1.2,4.1,1.8,6.2,1.8c3.9,0,7.7-2,10-5.6c3.4-5.5,1.8-12.7-3.7-16.1
	C86.1,264.7,78.9,266.3,75.4,271.8"/>
<path class="st0" d="M11.8,243.9c3.1,0,6.2-1.3,8.3-3.4c2.1-2.2,3.4-5.2,3.4-8.3s-1.3-6.2-3.4-8.3c-2.2-2.1-5.2-3.4-8.3-3.4
	s-6.2,1.3-8.3,3.4c-2.1,2.1-3.4,5.2-3.4,8.3s1.3,6.2,3.4,8.3C5.8,242.7,8.7,243.9,11.8,243.9"/>
<path class="st0" d="M447.3,300.7L232.6,434.4L18,300.7c-5.5-3.4-12.7-1.8-16.1,3.7s-1.8,12.7,3.7,16.1l220.8,137.5
	c1.9,1.2,4,1.8,6.2,1.8s4.3-0.6,6.2-1.8l220.8-137.5c5.5-3.4,7.1-10.7,3.7-16.1C460,299,452.8,297.3,447.3,300.7"/>
</svg>
