<?xml version="1.0" encoding="utf-8"?>
<!-- Generator: Adobe Illustrator 21.0.0, SVG Export Plug-In . SVG Version: 6.00 Build 0)  -->
<svg version="1.1" id="Capa_1" xmlns="http://www.w3.org/2000/svg" xmlns:xlink="http://www.w3.org/1999/xlink" x="0px" y="0px"
	 viewBox="0 0 465.2 461.8" style="enable-background:new 0 0 465.2 461.8;" xml:space="preserve">
<style type="text/css">
	.st0{clip-path:url(#SVGID_2_);fill:#FFFFFF;}
	.st1{clip-path:url(#SVGID_4_);fill:#FFFFFF;}
</style>
<g>
	<defs>
		<rect id="SVGID_1_" width="461.8" height="461.8"/>
	</defs>
	<clipPath id="SVGID_2_">
		<use xlink:href="#SVGID_1_"  style="overflow:visible;"/>
	</clipPath>
	<path class="st0" d="M405,219.1c-5.9-86.4-75.8-156.3-162.2-162.2V0h-23.7v56.8c-86.4,5.9-156.3,75.8-162.2,162.2H0v23.7h56.8
		c5.9,86.4,75.8,156.3,162.2,162.2v56.8h23.7V405c86.5-5.9,156.3-75.8,162.2-162.2h56.8v-23.7L405,219.1L405,219.1z M230.9,400.3
		c-93.5,0-169.3-75.8-169.3-169.3S137.4,62.8,230.9,62.8c93.6,0,169.3,74.6,169.3,168.1C400.3,324.5,324.5,400.3,230.9,400.3"/>
</g>
<g>
	<defs>
		<rect id="SVGID_3_" width="461.8" height="461.8"/>
	</defs>
	<clipPath id="SVGID_4_">
		<use xlink:href="#SVGID_3_"  style="overflow:visible;"/>
	</clipPath>
	<path class="st1" d="M293.2,248.9c-10.3-6.9-22.4-10.5-34-14.4c-2.8-1-5.7-2-8.2-3.6c-2.3-1.4-3.2-4.1-3.7-6.6
		c-0.2-1.3-0.4-2.6-0.5-3.9c8.5-11.5,14-30.4,14-45.9c0-24.1-13.6-30.9-30.4-30.9s-30.4,6.7-30.4,30.8c0,16,6,35.7,15,47.1
		c-0.1,0.9-0.2,1.8-0.4,2.7c-0.5,2.4-1.4,5.2-3.7,6.6c-2.6,1.5-5.4,2.5-8.2,3.5c-11.6,3.9-23.7,7.4-34,14.2c-5.4,3.5-9,10.4-11,16.4
		c-2.1,6.3-2.9,14.3-2.8,20.6h76.1H307c0.1-6.4-0.7-14.4-2.8-20.6C302.2,259,298.6,252.4,293.2,248.9"/>
</g>
</svg>
