<?xml version="1.0" encoding="utf-8"?>
<!-- Generator: Adobe Illustrator 16.0.0, SVG Export Plug-In . SVG Version: 6.00 Build 0)  -->
<!DOCTYPE svg PUBLIC "-//W3C//DTD SVG 1.1//EN" "http://www.w3.org/Graphics/SVG/1.1/DTD/svg11.dtd">
<svg version="1.1" id="Capa_1" xmlns="http://www.w3.org/2000/svg" xmlns:xlink="http://www.w3.org/1999/xlink" x="0px" y="0px"
	 width="465.199px" height="461.825px" viewBox="0 0 465.199 461.825" enable-background="new 0 0 465.199 461.825"
	 xml:space="preserve">
<g>
	<defs>
		<rect id="SVGID_7_" width="461.841" height="461.825"/>
	</defs>
	<clipPath id="SVGID_2_">
		<use xlink:href="#SVGID_7_"  overflow="visible"/>
	</clipPath>
	<path clip-path="url(#SVGID_2_)" d="M404.99,219.073c-5.917-86.439-75.788-156.31-162.227-162.232V0h-23.691v56.84
		c-86.444,5.922-156.301,75.789-162.232,162.232H0v23.686h56.841c5.922,86.444,75.788,156.31,162.232,162.237v56.83h23.691v-56.841
		c86.454-5.907,156.31-75.782,162.236-162.237h56.841v-23.675H404.99L404.99,219.073z M230.916,400.256
		c-93.537,0-169.335-75.793-169.335-169.34S137.379,62.763,230.916,62.763c93.552,0,169.34,74.605,169.34,168.147
		C400.256,324.463,324.468,400.256,230.916,400.256"/>
	<path clip-path="url(#SVGID_2_)" d="M293.233,248.913c-10.335-6.857-22.385-10.461-34.037-14.395
		c-2.813-0.985-5.664-2.028-8.245-3.561c-2.313-1.369-3.164-4.131-3.686-6.587c-0.233-1.302-0.372-2.623-0.455-3.944
		c8.457-11.549,14.049-30.398,14.049-45.86c0-24.136-13.63-30.857-30.45-30.857c-16.82,0-30.449,6.721-30.449,30.846
		c0,16.015,6,35.668,14.962,47.074c-0.088,0.898-0.197,1.801-0.351,2.705c-0.538,2.441-1.394,5.189-3.686,6.557
		c-2.572,1.518-5.421,2.489-8.24,3.475c-11.647,3.913-23.696,7.382-34.037,14.229c-5.374,3.541-9.02,10.376-11.028,16.407
		c-2.07,6.267-2.911,14.279-2.782,20.63h76.134h76.118c0.114-6.351-0.729-14.383-2.787-20.63
		C302.248,258.969,298.613,252.443,293.233,248.913"/>
</g>
</svg>
