<?xml version="1.0" encoding="utf-8"?>
<!-- Generator: Adobe Illustrator 16.0.0, SVG Export Plug-In . SVG Version: 6.00 Build 0)  -->
<!DOCTYPE svg PUBLIC "-//W3C//DTD SVG 1.1//EN" "http://www.w3.org/Graphics/SVG/1.1/DTD/svg11.dtd">
<svg version="1.1" id="Capa_1" xmlns="http://www.w3.org/2000/svg" xmlns:xlink="http://www.w3.org/1999/xlink" x="0px" y="0px"
	 width="19px" height="19.385px" viewBox="0 0 19 19.385" enable-background="new 0 0 19 19.385" xml:space="preserve">
<path fill="#25AE88" d="M9.5,0.177c-5.256,0-9.516,4.261-9.516,9.516c0,5.256,4.26,9.516,9.516,9.516
	c5.256,0,9.517-4.26,9.517-9.516C19.017,4.438,14.756,0.177,9.5,0.177z M15.328,6.666l-6.09,6.853
	c-0.232,0.26-0.554,0.395-0.879,0.395c-0.257,0-0.517-0.085-0.733-0.259l-3.807-3.043c-0.506-0.406-0.589-1.144-0.183-1.652
	c0.404-0.507,1.144-0.59,1.651-0.184l2.936,2.348l5.349-6.018c0.432-0.484,1.173-0.529,1.66-0.098
	C15.714,5.438,15.758,6.182,15.328,6.666z"/>
</svg>
