<?xml version="1.0" encoding="utf-8"?>
<!-- Generator: Adobe Illustrator 21.0.0, SVG Export Plug-In . SVG Version: 6.00 Build 0)  -->
<svg version="1.1" id="Capa_1" xmlns="http://www.w3.org/2000/svg" xmlns:xlink="http://www.w3.org/1999/xlink" x="0px" y="0px"
	 viewBox="0 0 465.2 461.8" style="enable-background:new 0 0 465.2 461.8;" xml:space="preserve">
<style type="text/css">
	.st0{clip-path:url(#SVGID_2_);fill:#FFFFFF;}
	.st1{clip-path:url(#SVGID_4_);fill:#FFFFFF;}
</style>
<g>
	<g>
		<g>
			<defs>
				<rect id="SVGID_1_" width="461.8" height="461.8"/>
			</defs>
			<clipPath id="SVGID_2_">
				<use xlink:href="#SVGID_1_"  style="overflow:visible;"/>
			</clipPath>
			<path class="st0" d="M230.9,461.8c127.3,0,230.9-103.6,230.9-230.9S358.3,0,230.9,0C103.6,0,0,103.6,0,230.9
				S103.6,461.8,230.9,461.8 M230.9,18.7c117.1,0,212.2,95.2,212.2,212.2S348,443.1,230.9,443.1S18.7,347.9,18.7,230.9
				S113.9,18.7,230.9,18.7"/>
		</g>
	</g>
	<g>
		<g>
			<defs>
				<rect id="SVGID_3_" width="461.8" height="461.8"/>
			</defs>
			<clipPath id="SVGID_4_">
				<use xlink:href="#SVGID_3_"  style="overflow:visible;"/>
			</clipPath>
			<path class="st1" d="M250.4,307.6c1.8,1.8,4.2,2.7,6.6,2.7c2.4,0,4.8-0.9,6.6-2.7c3.7-3.7,3.7-9.5,0-13.2l-63.5-63.5l63.5-63.5
				c3.7-3.7,3.7-9.5,0-13.2s-9.5-3.7-13.2,0l-70.1,70.1c-3.7,3.7-3.7,9.5,0,13.2L250.4,307.6z"/>
		</g>
	</g>
</g>
</svg>
