<?xml version="1.0" encoding="utf-8"?>
<!-- Generator: Adobe Illustrator 16.0.0, SVG Export Plug-In . SVG Version: 6.00 Build 0)  -->
<!DOCTYPE svg PUBLIC "-//W3C//DTD SVG 1.1//EN" "http://www.w3.org/Graphics/SVG/1.1/DTD/svg11.dtd">
<svg version="1.1" id="Capa_1" xmlns="http://www.w3.org/2000/svg" xmlns:xlink="http://www.w3.org/1999/xlink" x="0px" y="0px"
	 width="465.199px" height="461.825px" viewBox="0 0 465.199 461.825" enable-background="new 0 0 465.199 461.825"
	 xml:space="preserve">
<g>
	<defs>
		<rect id="SVGID_9_" y="11.986" width="461.841" height="461.841"/>
	</defs>
	<clipPath id="SVGID_2_">
		<use xlink:href="#SVGID_9_"  overflow="visible"/>
	</clipPath>
	<path clip-path="url(#SVGID_2_)" fill="#2C2F33" d="M230.92,473.827c127.347,0,230.921-103.574,230.921-230.92
		c0-127.345-103.574-230.92-230.921-230.92C103.574,11.986,0,115.56,0,242.906S103.574,473.827,230.92,473.827 M230.92,30.664
		c117.064,0,212.243,95.179,212.243,212.243S347.984,455.149,230.92,455.149c-117.063,0-212.242-95.179-212.242-212.243
		S113.856,30.664,230.92,30.664"/>
	<path clip-path="url(#SVGID_2_)" fill="#2C2F33" d="M250.447,319.597c1.792,1.792,4.244,2.735,6.603,2.735s4.812-0.943,6.604-2.735
		c3.679-3.679,3.679-9.527,0-13.207l-63.485-63.485l63.485-63.483c3.679-3.679,3.679-9.527,0-13.206
		c-3.68-3.679-9.528-3.679-13.206,0l-70.088,70.086c-3.679,3.679-3.679,9.528,0,13.207L250.447,319.597z"/>
</g>
</svg>
