<?xml version="1.0" encoding="utf-8"?>
<!-- Generator: Adobe Illustrator 16.0.0, SVG Export Plug-In . SVG Version: 6.00 Build 0)  -->
<!DOCTYPE svg PUBLIC "-//W3C//DTD SVG 1.1//EN" "http://www.w3.org/Graphics/SVG/1.1/DTD/svg11.dtd">
<svg version="1.1" id="Capa_1" xmlns="http://www.w3.org/2000/svg" xmlns:xlink="http://www.w3.org/1999/xlink" x="0px" y="0px"
	 width="26.125px" height="21.5px" viewBox="0 0 26.125 21.5" enable-background="new 0 0 26.125 21.5" xml:space="preserve">
<path fill="#414BB2" d="M20.143,9.014c-0.419-3.539-3.429-6.285-7.08-6.285s-6.661,2.746-7.08,6.285
	c-2.534,0-4.589,2.055-4.589,4.589c0,2.535,2.054,4.59,4.589,4.59h14.16c2.534,0,4.59-2.055,4.59-4.59
	C24.732,11.068,22.677,9.014,20.143,9.014 M12.426,13.611l-1.135,1.135L7.78,11.235l3.511-3.511l1.135,1.135l-2.376,2.376
	L12.426,13.611z M14.834,14.746l-1.135-1.135l2.375-2.376l-2.375-2.376l1.135-1.135l3.511,3.511L14.834,14.746z"/>
</svg>
