<?xml version="1.0" encoding="utf-8"?>
<!-- Generator: Adobe Illustrator 16.0.0, SVG Export Plug-In . SVG Version: 6.00 Build 0)  -->
<!DOCTYPE svg PUBLIC "-//W3C//DTD SVG 1.1//EN" "http://www.w3.org/Graphics/SVG/1.1/DTD/svg11.dtd">
<svg version="1.1" id="Capa_1" xmlns="http://www.w3.org/2000/svg" xmlns:xlink="http://www.w3.org/1999/xlink" x="0px" y="0px"
	 width="595.257px" height="595.279px" viewBox="0 0 595.257 595.279" enable-background="new 0 0 595.257 595.279"
	 xml:space="preserve">
<g>
	<defs>
		<rect id="SVGID_3_" x="-0.004" y="0.999" width="595.264" height="595.28"/>
	</defs>
	<clipPath id="SVGID_2_">
		<use xlink:href="#SVGID_3_"  overflow="visible"/>
	</clipPath>
	<path clip-path="url(#SVGID_2_)" fill="#707070" d="M593.399,265.59c-0.941-8.368-10.699-14.656-19.135-14.656
		c-27.277,0-51.48-16.015-61.631-40.784c-10.371-25.369-3.684-54.956,16.645-73.603c6.398-5.849,7.176-15.641,1.811-22.443
		c-13.961-17.728-29.828-33.741-47.154-47.62c-6.783-5.444-16.736-4.686-22.619,1.828c-17.742,19.648-49.609,26.95-74.234,16.675
		c-25.627-10.779-41.785-36.747-40.203-64.621c0.52-8.755-5.879-16.368-14.607-17.384c-22.234-2.572-44.662-2.651-66.961-0.177
		c-8.629,0.952-15.027,8.385-14.736,17.03c0.969,27.599-15.385,53.112-40.758,63.505c-24.33,9.938-55.973,2.697-73.679-16.776
		c-5.851-6.414-15.643-7.203-22.461-1.889c-17.838,13.996-34.062,30.022-48.151,47.604c-5.495,6.835-4.687,16.742,1.776,22.623
		c20.716,18.76,27.405,48.603,16.643,74.264C73.667,233.632,48.263,249.4,19.18,249.4c-9.438-0.304-16.16,6.031-17.192,14.611
		c-2.618,22.361-2.649,45.147-0.128,67.69c0.934,8.402,10.988,14.635,19.517,14.635c25.919-0.662,50.803,15.385,61.241,40.787
		c10.406,25.369,3.717,54.938-16.642,73.6c-6.368,5.85-7.176,15.627-1.81,22.428c13.83,17.615,29.699,33.645,47.086,47.639
		c6.82,5.494,16.742,4.719,22.654-1.795c17.808-19.697,49.673-26.986,74.2-16.691c25.691,10.746,41.85,36.711,40.27,64.602
		c-0.518,8.76,5.914,16.385,14.605,17.387c11.373,1.326,22.816,1.988,34.289,1.988c10.891,0,21.783-0.598,32.674-1.809
		c8.631-0.953,15.025-8.387,14.736-17.047c-1-27.584,15.383-53.096,40.721-63.471c24.496-10.004,56.006-2.684,73.713,16.771
		c5.887,6.4,15.609,7.174,22.465,1.877c17.805-13.963,33.996-29.975,48.15-47.605c5.494-6.82,4.719-16.742-1.779-22.621
		c-20.715-18.76-27.436-48.607-16.674-74.25c10.117-24.141,34.578-40.35,60.889-40.35l3.682,0.096
		c8.533,0.693,16.385-5.881,17.42-14.592C595.887,310.898,595.918,288.133,593.399,265.59 M298.1,398.548
		c-54.746,0-99.278-44.531-99.278-99.278c0-54.745,44.532-99.28,99.278-99.28s99.277,44.535,99.277,99.28
		C397.377,354.017,352.846,398.548,298.1,398.548"/>
</g>
</svg>
