<?xml version="1.0" encoding="utf-8"?>
<!-- Generator: Adobe Illustrator 16.0.0, SVG Export Plug-In . SVG Version: 6.00 Build 0)  -->
<!DOCTYPE svg PUBLIC "-//W3C//DTD SVG 1.1//EN" "http://www.w3.org/Graphics/SVG/1.1/DTD/svg11.dtd">
<svg version="1.1" id="Capa_1" xmlns="http://www.w3.org/2000/svg" xmlns:xlink="http://www.w3.org/1999/xlink" x="0px" y="0px"
	 width="26.125px" height="21.5px" viewBox="0 0 26.125 21.5" enable-background="new 0 0 26.125 21.5" xml:space="preserve">
<path fill="#414BB2" d="M17.165,3.6h-3.258V2.115H9.484V3.6H6.226v2.344h10.939V3.6z M10.656,3.287h2.08V3.6h-2.08V3.287z"/>
<path fill="#414BB2" d="M16.124,10.487l0.221-3.372H7.046l0.743,11.33h4.46c-0.581-0.822-0.922-1.827-0.922-2.907
	C11.327,12.837,13.456,10.623,16.124,10.487"/>
<path fill="#414BB2" d="M16.383,11.653c-2.141,0-3.884,1.742-3.884,3.884c0,2.143,1.743,3.885,3.884,3.885
	c2.142,0,3.885-1.742,3.885-3.885C20.268,13.396,18.525,11.653,16.383,11.653 M18.5,16.825l-0.829,0.829l-1.288-1.288l-1.287,1.288
	l-0.829-0.829l1.288-1.288l-1.288-1.288l0.829-0.828l1.287,1.287l1.288-1.287l0.829,0.828l-1.288,1.288L18.5,16.825z"/>
</svg>
