<?xml version="1.0" encoding="utf-8"?>
<!-- Generator: Adobe Illustrator 21.0.0, SVG Export Plug-In . SVG Version: 6.00 Build 0)  -->
<svg version="1.1" id="Capa_1" xmlns="http://www.w3.org/2000/svg" xmlns:xlink="http://www.w3.org/1999/xlink" x="0px" y="0px"
	 viewBox="0 0 595.3 563.6" style="enable-background:new 0 0 595.3 563.6;" xml:space="preserve">
<path d="M547.8,0H47.5C21.3,0,0,21.3,0,47.5v380C0,453.6,21.3,475,47.5,475h183.6v69.7h-66.5c-5.2,0-9.5,4.3-9.5,9.5
	s4.3,9.5,9.5,9.5h266c5.2,0,9.5-4.3,9.5-9.5s-4.3-9.5-9.5-9.5h-66.5V475h183.7c26.2,0,47.5-21.3,47.5-47.5v-380
	C595.3,21.3,574,0,547.8,0 M345.1,544.6h-95V475h95V544.6z M576.3,427.5c0,15.7-12.8,28.5-28.5,28.5H47.5
	C31.8,456,19,443.2,19,427.5V399h557.3L576.3,427.5L576.3,427.5z M576.3,380H19V47.5C19,31.8,31.8,19,47.5,19h500.3
	c15.7,0,28.5,12.8,28.5,28.5L576.3,380L576.3,380z"/>
<path d="M547.8,38H47.5c-5.2,0-9.5,4.3-9.5,9.5v304c0,5.2,4.3,9.5,9.5,9.5h411.6c5.2,0,9.5-4.3,9.5-9.5s-4.3-9.5-9.5-9.5H57V57
	h481.3v285h-41.2c-5.2,0-9.5,4.3-9.5,9.5s4.3,9.5,9.5,9.5h50.7c5.2,0,9.5-4.3,9.5-9.5v-304C557.3,42.2,553,38,547.8,38"/>
</svg>
