<?xml version="1.0" encoding="utf-8"?>
<!-- Generator: Adobe Illustrator 16.0.0, SVG Export Plug-In . SVG Version: 6.00 Build 0)  -->
<!DOCTYPE svg PUBLIC "-//W3C//DTD SVG 1.1//EN" "http://www.w3.org/Graphics/SVG/1.1/DTD/svg11.dtd">
<svg version="1.1" id="Capa_1" xmlns="http://www.w3.org/2000/svg" xmlns:xlink="http://www.w3.org/1999/xlink" x="0px" y="0px"
	 width="595.28px" height="563.616px" viewBox="0 0 595.28 563.616" enable-background="new 0 0 595.28 563.616"
	 xml:space="preserve">
<g>
	<defs>
		<rect id="SVGID_1_" width="595.28" height="563.616"/>
	</defs>
	<clipPath id="SVGID_2_">
		<use xlink:href="#SVGID_1_"  overflow="visible"/>
	</clipPath>
	<path clip-path="url(#SVGID_2_)" d="M547.785,0H47.496C21.306,0,0,21.307,0,47.496v379.966c0,26.188,21.306,47.495,47.496,47.495
		h183.65v69.661h-66.494c-5.246,0-9.499,4.253-9.499,9.499s4.253,9.499,9.499,9.499h265.976c5.246,0,9.5-4.253,9.5-9.499
		s-4.254-9.499-9.5-9.499h-66.494v-69.661h183.651c26.188,0,47.494-21.307,47.494-47.495V47.496C595.279,21.307,573.974,0,547.785,0
		 M345.136,544.618h-94.992v-69.66h94.992V544.618z M576.281,427.462c0,15.713-12.782,28.497-28.496,28.497H47.496
		c-15.714,0-28.497-12.784-28.497-28.497v-28.498h557.283V427.462z M576.281,379.966H18.999V47.496
		c0-15.713,12.783-28.498,28.497-28.498h500.29c15.714,0,28.496,12.785,28.496,28.498V379.966z"/>
	<path clip-path="url(#SVGID_2_)" d="M547.784,37.997H47.495c-5.246,0-9.499,4.253-9.499,9.499v303.973
		c0,5.246,4.253,9.499,9.499,9.499h411.63c5.246,0,9.499-4.253,9.499-9.499s-4.253-9.499-9.499-9.499H56.995V56.995h481.29V341.97
		h-41.163c-5.246,0-9.499,4.253-9.499,9.499s4.253,9.499,9.499,9.499h50.662c5.246,0,9.499-4.253,9.499-9.499V47.496
		C557.283,42.25,553.03,37.997,547.784,37.997"/>
</g>
</svg>
