<?xml version="1.0" encoding="utf-8"?>
<!-- Generator: Adobe Illustrator 21.1.0, SVG Export Plug-In . SVG Version: 6.00 Build 0)  -->
<svg version="1.1" id="Capa_1" xmlns="http://www.w3.org/2000/svg" xmlns:xlink="http://www.w3.org/1999/xlink" x="0px" y="0px"
	 viewBox="0 0 561 561" style="enable-background:new 0 0 561 561;" xml:space="preserve">
<g>
	<path d="M228,499.9c41.8,0,82.5-11.8,117.6-34c34.2-21.6,61.8-52.2,79.8-88.4l-34.3-17.1c-31,62.4-93.5,101.1-163.1,101.1
		c-100.4,0-182-81.6-182-182s81.6-182,182-182c69.6,0,132.1,38.8,163.1,101.1l34.3-17.1c-18-36.2-45.6-66.7-79.8-88.4
		c-35.2-22.3-75.8-34-117.6-34C106.5,59.3,7.7,158.1,7.7,279.6S106.5,499.9,228,499.9z"/>
	<polygon points="221.7,260.4 221.7,298.7 481.7,298.7 437.7,342.7 464.8,369.8 555,279.6 464.8,189.4 437.7,216.5 481.7,260.4 	"/>
</g>
</svg>
