<?xml version="1.0" encoding="utf-8"?>
<!-- Generator: Adobe Illustrator 16.0.0, SVG Export Plug-In . SVG Version: 6.00 Build 0)  -->
<!DOCTYPE svg PUBLIC "-//W3C//DTD SVG 1.1//EN" "http://www.w3.org/Graphics/SVG/1.1/DTD/svg11.dtd">
<svg version="1.1" id="Capa_1" xmlns="http://www.w3.org/2000/svg" xmlns:xlink="http://www.w3.org/1999/xlink" x="0px" y="0px"
	 width="19px" height="19.385px" viewBox="0 0 19 19.385" enable-background="new 0 0 19 19.385" xml:space="preserve">
<g>
	<path d="M9.499,6.554c-1.582,0-2.825,1.243-2.825,2.825c0,1.583,1.243,2.827,2.825,2.827c1.583,0,2.826-1.244,2.826-2.827
		C12.325,7.797,11.083,6.554,9.499,6.554z M9.499,11.076c-0.96,0-1.695-0.735-1.695-1.697c0-0.961,0.734-1.695,1.695-1.695
		c0.962,0,1.696,0.734,1.696,1.695C11.195,10.341,10.461,11.076,9.499,11.076z"/>
	<path d="M9.5,0.177c-5.255,0-9.515,4.26-9.515,9.516c0,5.255,4.26,9.515,9.515,9.515c5.256,0,9.516-4.26,9.516-9.515
		C19.016,4.437,14.755,0.177,9.5,0.177z M9.499,13.618c-2.825,0-5.256-1.751-6.217-4.239C4.243,6.892,6.674,5.14,9.499,5.14
		c2.826,0,5.257,1.752,6.218,4.239C14.756,11.867,12.325,13.618,9.499,13.618z"/>
</g>
</svg>
