<?xml version="1.0" encoding="utf-8"?>
<!-- Generator: Adobe Illustrator 21.0.0, SVG Export Plug-In . SVG Version: 6.00 Build 0)  -->
<svg version="1.1" id="Capa_1" xmlns="http://www.w3.org/2000/svg" xmlns:xlink="http://www.w3.org/1999/xlink" x="0px" y="0px"
	 viewBox="0 0 417.4 417.4" style="enable-background:new 0 0 417.4 417.4;" xml:space="preserve">
<style type="text/css">
	.st0{fill:#010002;}
</style>
<path class="st0" d="M208.7,417.4C93.6,417.4,0,323.8,0,208.7C0,93.6,93.6,0,208.7,0s208.7,93.6,208.7,208.7
	C417.4,323.8,323.8,417.4,208.7,417.4 M208.7,23.8c-101.9,0-184.8,82.9-184.8,184.8c0,101.9,82.9,184.8,184.8,184.8
	s184.8-82.9,184.8-184.8C393.5,106.8,310.6,23.8,208.7,23.8"/>
<path class="st0" d="M272.7,284.6c-3.1,0-6.1-1.2-8.4-3.5l-64-64c-2.2-2.2-3.5-5.3-3.5-8.4V73.3c0-6.6,5.3-11.9,11.9-11.9
	c6.6,0,11.9,5.3,11.9,11.9v130.5l60.5,60.5c4.7,4.7,4.7,12.2,0,16.9C278.8,283.4,275.7,284.6,272.7,284.6"/>
</svg>
