<?xml version="1.0" encoding="utf-8"?>
<!-- Generator: Adobe Illustrator 16.0.0, SVG Export Plug-In . SVG Version: 6.00 Build 0)  -->
<!DOCTYPE svg PUBLIC "-//W3C//DTD SVG 1.1//EN" "http://www.w3.org/Graphics/SVG/1.1/DTD/svg11.dtd">
<svg version="1.1" id="Capa_1" xmlns="http://www.w3.org/2000/svg" xmlns:xlink="http://www.w3.org/1999/xlink" x="0px" y="0px"
	 width="417.365px" height="417.365px" viewBox="0 0 417.365 417.365" enable-background="new 0 0 417.365 417.365"
	 xml:space="preserve">
<g>
	<defs>
		<rect id="SVGID_5_" y="-0.013" width="417.365" height="417.378"/>
	</defs>
	<clipPath id="SVGID_2_">
		<use xlink:href="#SVGID_5_"  overflow="visible"/>
	</clipPath>
	<path clip-path="url(#SVGID_2_)" fill="#010002" d="M208.683,417.365C93.611,417.365,0,323.756,0,208.67
		C0,93.611,93.611-0.013,208.683-0.013S417.365,93.611,417.365,208.67C417.379,323.756,323.754,417.365,208.683,417.365
		 M208.683,23.84c-101.916,0-184.83,82.914-184.83,184.83c0,101.928,82.914,184.843,184.83,184.843s184.83-82.913,184.83-184.843
		C393.526,106.754,310.612,23.84,208.683,23.84"/>
	<path clip-path="url(#SVGID_2_)" fill="#010002" d="M272.689,284.596c-3.064,0-6.101-1.155-8.439-3.494l-63.993-63.993
		c-2.244-2.244-3.495-5.267-3.495-8.438V73.279c0-6.584,5.336-11.919,11.935-11.919c6.585,0,11.919,5.321,11.919,11.919v130.459
		l60.5,60.498c4.663,4.664,4.663,12.215,0,16.865C278.776,283.44,275.727,284.596,272.689,284.596"/>
</g>
</svg>
