<?xml version="1.0" encoding="utf-8"?>
<!-- Generator: Adobe Illustrator 21.0.0, SVG Export Plug-In . SVG Version: 6.00 Build 0)  -->
<svg version="1.1" id="Capa_1" xmlns="http://www.w3.org/2000/svg" xmlns:xlink="http://www.w3.org/1999/xlink" x="0px" y="0px"
	 viewBox="0 0 11.7 11.7" style="enable-background:new 0 0 11.7 11.7;" xml:space="preserve">
<style type="text/css">
	.st0{fill:#FFFFFF;}
</style>
<path class="st0" d="M5.9,0C2.6,0,0,2.6,0,5.9c0,3.2,2.6,5.9,5.9,5.9c3.2,0,5.9-2.6,5.9-5.9C11.7,2.6,9.1,0,5.9,0 M5.9,11
	C3,11,0.7,8.7,0.7,5.9C0.7,3,3,0.7,5.9,0.7S11,3,11,5.9S8.7,11,5.9,11"/>
<path class="st0" d="M5.9,2.9c0.3,0,0.6,0.3,0.6,0.6c0,0.3-0.3,0.6-0.6,0.6S5.3,3.9,5.3,3.5C5.3,3.2,5.5,2.9,5.9,2.9"/>
<path class="st0" d="M5.9,5.1c-0.2,0-0.4,0.2-0.4,0.4v3.1c0,0.2,0.2,0.4,0.4,0.4c0.2,0,0.4-0.2,0.4-0.4V5.5C6.2,5.3,6.1,5.1,5.9,5.1
	"/>
</svg>
