<?xml version="1.0" encoding="utf-8"?>
<!-- Generator: Adobe Illustrator 21.0.0, SVG Export Plug-In . SVG Version: 6.00 Build 0)  -->
<svg version="1.1" id="Capa_1" xmlns="http://www.w3.org/2000/svg" xmlns:xlink="http://www.w3.org/1999/xlink" x="0px" y="0px"
	 viewBox="0 0 595.3 563.6" style="enable-background:new 0 0 595.3 563.6;" xml:space="preserve">
<path d="M243.9,0H49.4C30.9,0,15.8,15.1,15.8,33.6v194.4c0,18.5,15.1,33.6,33.6,33.6h194.4c18.5,0,33.6-15.1,33.6-33.6V33.6
	C277.5,15.1,262.4,0,243.9,0 M257.4,228.1c0,7.4-6.1,13.5-13.5,13.5H49.4c-7.4,0-13.5-6-13.5-13.5V33.6c0-7.4,6-13.5,13.5-13.5
	h194.4c7.4,0,13.5,6,13.5,13.5L257.4,228.1L257.4,228.1z"/>
<path d="M545.8,0H351.4c-18.5,0-33.6,15.1-33.6,33.6v194.4c0,18.5,15.1,33.6,33.6,33.6h194.4c18.5,0,33.6-15.1,33.6-33.6V33.6
	C579.4,15.1,564.4,0,545.8,0 M559.3,228.1c0,7.4-6,13.5-13.5,13.5H351.4c-7.4,0-13.5-6-13.5-13.5V33.6c0-7.4,6-13.5,13.5-13.5h194.4
	c7.4,0,13.5,6,13.5,13.5V228.1z"/>
<path d="M243.9,301.9H49.4c-18.5,0-33.6,15.1-33.6,33.6V530c0,18.5,15.1,33.6,33.6,33.6h194.4c18.5,0,33.6-15.1,33.6-33.6V335.6
	C277.5,317,262.4,301.9,243.9,301.9 M257.4,530c0,7.4-6.1,13.5-13.5,13.5H49.4c-7.4,0-13.5-6-13.5-13.5V335.6
	c0-7.4,6-13.5,13.5-13.5h194.4c7.4,0,13.5,6,13.5,13.5L257.4,530L257.4,530z"/>
<path d="M569.4,422.7H458.7V312c0-5.6-4.5-10.1-10.1-10.1s-10.1,4.5-10.1,10.1v110.7H327.8c-5.6,0-10.1,4.5-10.1,10.1
	c0,5.6,4.5,10.1,10.1,10.1h110.7v110.7c0,5.6,4.5,10.1,10.1,10.1s10.1-4.5,10.1-10.1V442.8h110.7c5.6,0,10.1-4.5,10.1-10.1
	C579.4,427.2,574.9,422.7,569.4,422.7"/>
</svg>
