<?xml version="1.0" encoding="utf-8"?>
<!-- Generator: Adobe Illustrator 21.0.0, SVG Export Plug-In . SVG Version: 6.00 Build 0)  -->
<svg version="1.1" id="Capa_1" xmlns="http://www.w3.org/2000/svg" xmlns:xlink="http://www.w3.org/1999/xlink" x="0px" y="0px"
	 viewBox="0 0 595.3 563.6" style="enable-background:new 0 0 595.3 563.6;" xml:space="preserve">
<style type="text/css">
	.st0{fill:none;}
</style>
<rect x="116.1" class="st0" width="363" height="563.6"/>
<path d="M443.5,0H151.8c-19.7,0-35.7,16-35.7,35.7v492.2c0,19.7,16,35.7,35.7,35.7h291.7c19.7,0,35.7-16,35.7-35.7V35.7
	C479.2,16,463.2,0,443.5,0 M134,89.7h327.3v372.7H134V89.7z M151.8,17.9h291.7c9.8,0,17.8,8,17.8,17.8v42.1H134V35.7
	C134,25.9,142,17.9,151.8,17.9 M443.5,545.7H151.8c-9.8,0-17.8-8-17.8-17.8v-53.6h327.3v53.6C461.3,537.7,453.3,545.7,443.5,545.7"
	/>
<rect x="116.1" class="st0" width="363" height="563.6"/>
<path d="M297.6,482.2c-16.1,0-29.3,13.1-29.3,29.3s13.1,29.3,29.3,29.3s29.3-13.1,29.3-29.3S313.8,482.2,297.6,482.2 M297.6,528.9
	c-9.6,0-17.4-7.8-17.4-17.4c0-9.6,7.8-17.4,17.4-17.4S315,502,315,511.5C315,521.1,307.2,528.9,297.6,528.9"/>
<rect x="116.1" class="st0" width="363" height="563.6"/>
<path d="M257.1,56.8h81.1c3.3,0,6-2.7,6-6s-2.7-6-6-6h-81.1c-3.3,0-6,2.7-6,6S253.8,56.8,257.1,56.8"/>
<rect x="116.1" class="st0" width="363" height="563.6"/>
<path d="M235.7,56.8c1.6,0,3.1-0.6,4.2-1.7c1.1-1.1,1.8-2.6,1.8-4.2c0-1.6-0.6-3.1-1.8-4.2c-1.1-1.1-2.6-1.7-4.2-1.7
	c-1.6,0-3.1,0.6-4.2,1.7c-1.1,1.1-1.7,2.6-1.7,4.2c0,1.6,0.6,3.1,1.7,4.2C232.5,56.2,234.1,56.8,235.7,56.8"/>
</svg>
