<?xml version="1.0" encoding="utf-8"?>
<!-- Generator: Adobe Illustrator 16.0.0, SVG Export Plug-In . SVG Version: 6.00 Build 0)  -->
<!DOCTYPE svg PUBLIC "-//W3C//DTD SVG 1.1//EN" "http://www.w3.org/Graphics/SVG/1.1/DTD/svg11.dtd">
<svg version="1.1" id="Capa_1" xmlns="http://www.w3.org/2000/svg" xmlns:xlink="http://www.w3.org/1999/xlink" x="0px" y="0px"
	 width="595.28px" height="563.616px" viewBox="0 0 595.28 563.616" enable-background="new 0 0 595.28 563.616"
	 xml:space="preserve">
<g>
	<defs>
		<rect id="SVGID_5_" x="15.832" width="563.616" height="563.616"/>
	</defs>
	<clipPath id="SVGID_2_">
		<use xlink:href="#SVGID_5_"  overflow="visible"/>
	</clipPath>
	<path clip-path="url(#SVGID_2_)" d="M243.896,0H49.447C30.909,0,15.832,15.077,15.832,33.615v194.448
		c0,18.538,15.077,33.615,33.615,33.615h194.448c18.539,0,33.615-15.077,33.615-33.615V33.615C277.511,15.077,262.434,0,243.896,0
		 M257.382,228.063c0,7.438-6.05,13.486-13.486,13.486H49.447c-7.438,0-13.486-6.049-13.486-13.486V33.615
		c0-7.437,6.049-13.485,13.486-13.485h194.448c7.437,0,13.486,6.049,13.486,13.485V228.063z"/>
	<path clip-path="url(#SVGID_2_)" d="M545.833,0H351.385c-18.538,0-33.615,15.077-33.615,33.615v194.448
		c0,18.538,15.077,33.615,33.615,33.615h194.448c18.538,0,33.615-15.077,33.615-33.615V33.615C579.448,15.077,564.371,0,545.833,0
		 M559.318,228.063c0,7.438-6.049,13.486-13.485,13.486H351.385c-7.438,0-13.486-6.049-13.486-13.486V33.615
		c0-7.437,6.049-13.485,13.486-13.485h194.448c7.437,0,13.485,6.049,13.485,13.485V228.063z"/>
	<path clip-path="url(#SVGID_2_)" d="M243.896,301.938H49.447c-18.539,0-33.615,15.077-33.615,33.615v194.448
		c0,18.538,15.077,33.615,33.615,33.615h194.448c18.539,0,33.615-15.077,33.615-33.615V335.553
		C277.511,317.015,262.434,301.938,243.896,301.938 M257.382,530.001c0,7.438-6.05,13.486-13.486,13.486H49.447
		c-7.438,0-13.486-6.049-13.486-13.486V335.553c0-7.438,6.049-13.486,13.486-13.486h194.448c7.437,0,13.486,6.049,13.486,13.486
		V530.001z"/>
	<path clip-path="url(#SVGID_2_)" d="M569.384,422.712H458.673v-110.71c0-5.565-4.499-10.064-10.064-10.064
		s-10.064,4.499-10.064,10.064v110.71h-110.71c-5.565,0-10.064,4.499-10.064,10.064c0,5.566,4.499,10.065,10.064,10.065h110.71
		v110.71c0,5.565,4.499,10.064,10.064,10.064s10.064-4.499,10.064-10.064v-110.71h110.711c5.565,0,10.064-4.499,10.064-10.065
		C579.448,427.211,574.949,422.712,569.384,422.712"/>
</g>
</svg>
