<?xml version="1.0" encoding="utf-8"?>
<!-- Generator: Adobe Illustrator 16.0.0, SVG Export Plug-In . SVG Version: 6.00 Build 0)  -->
<!DOCTYPE svg PUBLIC "-//W3C//DTD SVG 1.1//EN" "http://www.w3.org/Graphics/SVG/1.1/DTD/svg11.dtd">
<svg version="1.1" id="Capa_1" xmlns="http://www.w3.org/2000/svg" xmlns:xlink="http://www.w3.org/1999/xlink" x="0px" y="0px"
	 width="595.28px" height="563.616px" viewBox="0 0 595.28 563.616" enable-background="new 0 0 595.28 563.616"
	 xml:space="preserve">
<g>
	<defs>
		<rect id="SVGID_3_" x="116.118" width="363.046" height="563.616"/>
	</defs>
	<clipPath id="SVGID_2_">
		<use xlink:href="#SVGID_3_"  overflow="visible"/>
	</clipPath>
	<path clip-path="url(#SVGID_2_)" d="M443.481,0H151.799c-19.677,0-35.682,16.008-35.682,35.684v492.249
		c0,19.676,16.007,35.684,35.683,35.684h291.681c19.675,0,35.683-16.008,35.683-35.684V35.684C479.162,16.008,463.156,0,443.481,0
		 M133.999,89.686h327.285v372.739H133.999V89.686z M151.799,17.883h291.682c9.814,0,17.802,7.984,17.802,17.801v42.082H133.999
		V35.684C133.999,25.867,141.984,17.883,151.799,17.883 M443.481,545.733H151.799c-9.815,0-17.802-7.984-17.802-17.801v-53.59
		h327.285v53.59C461.282,537.749,453.296,545.733,443.481,545.733"/>
	<path clip-path="url(#SVGID_2_)" d="M297.641,482.248c-16.146,0-29.281,13.136-29.281,29.282s13.137,29.281,29.281,29.281
		s29.282-13.137,29.282-29.281S313.786,482.248,297.641,482.248 M297.641,528.892c-9.573,0-17.361-7.789-17.361-17.361
		c0-9.574,7.788-17.361,17.361-17.361s17.361,7.787,17.361,17.361C315.002,521.103,307.214,528.892,297.641,528.892"/>
	<path clip-path="url(#SVGID_2_)" d="M257.11,56.795h81.061c3.292,0,5.96-2.668,5.96-5.959s-2.668-5.961-5.96-5.961H257.11
		c-3.292,0-5.96,2.67-5.96,5.961S253.819,56.795,257.11,56.795"/>
	<path clip-path="url(#SVGID_2_)" d="M235.657,56.795c1.562,0,3.1-0.631,4.208-1.74c1.109-1.119,1.752-2.646,1.752-4.219
		c0-1.574-0.644-3.1-1.752-4.221c-1.109-1.108-2.647-1.74-4.208-1.74c-1.573,0-3.101,0.632-4.22,1.74
		c-1.108,1.109-1.74,2.646-1.74,4.221c0,1.573,0.632,3.1,1.74,4.219C232.547,56.164,234.084,56.795,235.657,56.795"/>
</g>
</svg>
