<?xml version="1.0" encoding="utf-8"?>
<!-- Generator: Adobe Illustrator 16.0.0, SVG Export Plug-In . SVG Version: 6.00 Build 0)  -->
<!DOCTYPE svg PUBLIC "-//W3C//DTD SVG 1.1//EN" "http://www.w3.org/Graphics/SVG/1.1/DTD/svg11.dtd">
<svg version="1.1" id="Capa_1" xmlns="http://www.w3.org/2000/svg" xmlns:xlink="http://www.w3.org/1999/xlink" x="0px" y="0px"
	 width="16.198px" height="16.198px" viewBox="0 0 16.198 16.198" enable-background="new 0 0 16.198 16.198" xml:space="preserve">
<g>
	<defs>
		<rect id="SVGID_1_" width="16.198" height="16.198"/>
	</defs>
	<clipPath id="SVGID_2_">
		<use xlink:href="#SVGID_1_"  overflow="visible"/>
	</clipPath>
	<path clip-path="url(#SVGID_2_)" fill="#25AE88" d="M8.099,0c4.474,0,8.1,3.626,8.1,8.099s-3.626,8.099-8.1,8.099
		C3.626,16.198,0,12.572,0,8.099S3.626,0,8.099,0"/>
	<path clip-path="url(#SVGID_2_)" fill="#FFFFFF" d="M7.127,11.69c-0.219,0-0.44-0.072-0.624-0.219L3.263,8.88
		C2.832,8.536,2.762,7.906,3.107,7.475c0.344-0.433,0.975-0.502,1.405-0.156l2.499,1.998l4.553-5.122
		c0.366-0.413,0.998-0.451,1.411-0.083c0.413,0.367,0.45,0.999,0.083,1.412l-5.183,5.831C7.678,11.576,7.403,11.69,7.127,11.69z"/>
</g>
</svg>
