<?xml version="1.0" encoding="utf-8"?>
<!-- Generator: Adobe Illustrator 16.0.0, SVG Export Plug-In . SVG Version: 6.00 Build 0)  -->
<!DOCTYPE svg PUBLIC "-//W3C//DTD SVG 1.1//EN" "http://www.w3.org/Graphics/SVG/1.1/DTD/svg11.dtd">
<svg version="1.1" id="Capa_1" xmlns="http://www.w3.org/2000/svg" xmlns:xlink="http://www.w3.org/1999/xlink" x="0px" y="0px"
	 width="595.257px" height="595.279px" viewBox="0 0 595.257 595.279" enable-background="new 0 0 595.257 595.279"
	 xml:space="preserve">
<g>
	<g>
		<defs>
			<rect id="SVGID_1_" y="0.139" width="595.257" height="595.279"/>
		</defs>
		<clipPath id="SVGID_2_">
			<use xlink:href="#SVGID_1_"  overflow="visible"/>
		</clipPath>
		<circle clip-path="url(#SVGID_2_)" fill="#556080" cx="298.069" cy="298.209" r="298.069"/>
	</g>
</g>
<g>
	<path fill="#E7ECED" d="M218.479,309.746c-11.133,0-20.158-9.025-20.158-20.158v-97.964c0,0-0.043-0.915,0-1.216
		c0.104-0.72,0.823-2.791,0.823-2.791c0.817-2.772,20.982-67.928,105.078-72.096c50.789-2.51,78.99,19.93,93.679,39.205
		c15.534,20.384,19.118,41.137,19.476,43.436l-39.837,6.195l0.026,0.168c-0.022-0.137-2.497-13.855-12.616-26.494
		c-12.851-16.052-32.595-23.543-58.732-22.242c-47.756,2.365-63.877,32.36-67.58,41.118v92.681
		C238.637,300.72,229.611,309.746,218.479,309.746z"/>
	<path fill="#E7ECED" d="M432.015,465.57c0,8.096-6.564,14.66-14.66,14.66H177.902c-8.096,0-14.66-6.564-14.66-14.66V308.655
		c0-8.097,6.564-14.661,14.66-14.661h239.453c8.096,0,14.66,6.564,14.66,14.661V465.57z"/>
</g>
</svg>
