<?xml version="1.0" encoding="utf-8"?>
<!-- Generator: Adobe Illustrator 16.0.0, SVG Export Plug-In . SVG Version: 6.00 Build 0)  -->
<!DOCTYPE svg PUBLIC "-//W3C//DTD SVG 1.1//EN" "http://www.w3.org/Graphics/SVG/1.1/DTD/svg11.dtd">
<svg version="1.1" id="Capa_1" xmlns="http://www.w3.org/2000/svg" xmlns:xlink="http://www.w3.org/1999/xlink" x="0px" y="0px"
	 width="417.365px" height="417.365px" viewBox="0 0 417.365 417.365" enable-background="new 0 0 417.365 417.365"
	 xml:space="preserve">
<g>
	<defs>
		<rect id="SVGID_3_" width="417.365" height="417.365"/>
	</defs>
	<clipPath id="SVGID_2_">
		<use xlink:href="#SVGID_3_"  overflow="visible"/>
	</clipPath>
	<path clip-path="url(#SVGID_2_)" fill="#231F20" d="M292.326,201.357l-115.073-78.703c-3.577-2.641-13.118-2.641-13.885,7.325
		v157.406c0.853,9.966,10.562,10.136,13.885,7.325l115.073-78.703C295.307,214.219,299.396,206.894,292.326,201.357z
		 M181.17,270.605V146.76l90.373,61.923L181.17,270.605z"/>
	<path clip-path="url(#SVGID_2_)" fill="#231F20" d="M208.683,0C93.608,0,0,93.61,0,208.683
		c0,115.074,93.608,208.683,208.683,208.683c115.073,0,208.683-93.609,208.683-208.683C417.365,93.61,323.756,0,208.683,0
		 M208.683,399.563c-105.278,0-190.881-85.603-190.881-190.88c0-105.279,85.603-190.881,190.881-190.881
		c105.277,0,190.88,85.602,190.88,190.881C399.563,313.961,313.96,399.563,208.683,399.563"/>
</g>
</svg>
