<?xml version="1.0" encoding="utf-8"?>
<!-- Generator: Adobe Illustrator 21.1.0, SVG Export Plug-In . SVG Version: 6.00 Build 0)  -->
<svg version="1.1" id="Capa_1" xmlns="http://www.w3.org/2000/svg" xmlns:xlink="http://www.w3.org/1999/xlink" x="0px" y="0px"
	 viewBox="0 0 561 561" style="enable-background:new 0 0 561 561;" xml:space="preserve">
<g>
	<g>
		<g>
			<path d="M279.5,536c-135.7,0-246-107-246-238.5c0-91.9,53-174.1,138.3-214.5c10.7-5,23.4-0.5,28.5,10.2
				c5,10.7,0.5,23.4-10.2,28.5C119.9,154.9,76.3,222.2,76.3,297.5c0,107.9,91.2,195.8,203.2,195.8s203.2-87.8,203.2-195.8
				c0-75.8-46.1-145.4-117.5-177.4c-10.8-4.8-15.6-17.5-10.8-28.3s17.5-15.6,28.3-10.7C469.5,120,525.5,205,525.5,297.5
				C525.5,429,415.2,536,279.5,536L279.5,536z"/>
			<path d="M279.5,312.9c-11.8,0-21.4-9.5-21.4-21.4V44.4c0-11.8,9.6-21.4,21.4-21.4c11.8,0,21.4,9.5,21.4,21.4v247.2
				C300.9,303.4,291.3,312.9,279.5,312.9z"/>
		</g>
	</g>
</g>
</svg>
