<?xml version="1.0" encoding="utf-8"?>
<!-- Generator: Adobe Illustrator 21.0.0, SVG Export Plug-In . SVG Version: 6.00 Build 0)  -->
<svg version="1.1" id="Capa_1" xmlns="http://www.w3.org/2000/svg" xmlns:xlink="http://www.w3.org/1999/xlink" x="0px" y="0px"
	 viewBox="0 0 465.2 461.8" style="enable-background:new 0 0 465.2 461.8;" xml:space="preserve">
<style type="text/css">
	.st0{fill:#FFFFFF;}
</style>
<path class="st0" d="M18.6,353.6h130.3v93H18.6V353.6z M167.5,353.6h130.3v93H167.5V353.6z M316.3,353.6h130.3v93H316.3V353.6z
	 M18.6,241.9h130.3v93H18.6V241.9z M167.5,241.9h130.3v93H167.5V241.9z M316.3,241.9h130.3v93H316.3V241.9z M18.6,130.3h130.3v93
	H18.6V130.3z M167.5,130.3h130.3v93H167.5V130.3z M316.3,130.3h130.3v93H316.3V130.3z M18.6,18.6h130.3v93H18.6V18.6z M167.5,18.6
	h130.3v93H167.5V18.6z M316.3,18.6h130.3v93H316.3V18.6z M0,0v111.6v18.6v93v18.6v93v18.6v111.6h148.9h18.6h130.3h18.6h148.9V0H0z"
	/>
</svg>
