<?xml version="1.0" encoding="utf-8"?>
<!-- Generator: Adobe Illustrator 16.0.0, SVG Export Plug-In . SVG Version: 6.00 Build 0)  -->
<!DOCTYPE svg PUBLIC "-//W3C//DTD SVG 1.1//EN" "http://www.w3.org/Graphics/SVG/1.1/DTD/svg11.dtd">
<svg version="1.1" id="Capa_1" xmlns="http://www.w3.org/2000/svg" xmlns:xlink="http://www.w3.org/1999/xlink" x="0px" y="0px"
	 width="465.199px" height="461.825px" viewBox="0 0 465.199 461.825" enable-background="new 0 0 465.199 461.825"
	 xml:space="preserve">
<path d="M18.607,353.552h130.256v93.04H18.607V353.552z M167.472,353.552h130.257v93.04H167.472V353.552z M316.335,353.552h130.255
	v93.04H316.335V353.552z M18.607,241.903h130.256v93.04H18.607V241.903z M167.472,241.903h130.257v93.04H167.472V241.903z
	 M316.335,241.903h130.255v93.04H316.335V241.903z M18.607,130.256h130.256v93.04H18.607V130.256z M167.472,130.256h130.257v93.04
	H167.472V130.256z M316.335,130.256h130.255v93.04H316.335V130.256z M18.607,18.607h130.256v93.04H18.607V18.607z M167.472,18.607
	h130.257v93.04H167.472V18.607z M316.335,18.607h130.255v93.04H316.335V18.607z M0,0v111.648v18.608v93.04v18.607v93.041v18.608
	v111.647h148.863h18.608h130.257h18.607h148.864V0H0z"/>
</svg>
