<?xml version="1.0" encoding="utf-8"?>
<!-- Generator: Adobe Illustrator 16.0.0, SVG Export Plug-In . SVG Version: 6.00 Build 0)  -->
<!DOCTYPE svg PUBLIC "-//W3C//DTD SVG 1.1//EN" "http://www.w3.org/Graphics/SVG/1.1/DTD/svg11.dtd">
<svg version="1.1" id="Capa_1" xmlns="http://www.w3.org/2000/svg" xmlns:xlink="http://www.w3.org/1999/xlink" x="0px" y="0px"
	 width="465.199px" height="461.825px" viewBox="0 0 465.199 461.825" enable-background="new 0 0 465.199 461.825"
	 xml:space="preserve">
<g>
	<defs>
		<rect id="SVGID_5_" x="36.003" width="400.323" height="461.825"/>
	</defs>
	<clipPath id="SVGID_2_">
		<use xlink:href="#SVGID_5_"  overflow="visible"/>
	</clipPath>
	<path clip-path="url(#SVGID_2_)" d="M236.164,461.825c-2.377,0-4.754-0.756-6.752-2.269L109.4,368.659
		c-45.959-34.809-73.397-90.012-73.397-147.667V63.737c0-5.023,3.347-9.427,8.185-10.773L233.167,0.407
		c1.962-0.543,4.032-0.543,5.995,0L428.14,52.964c4.838,1.347,8.187,5.752,8.187,10.773v157.255
		c0,57.654-27.44,112.855-73.399,147.667l-120.012,90.897C240.919,461.069,238.542,461.825,236.164,461.825 M58.367,72.233v148.76
		c0,50.693,24.126,99.231,64.537,129.84l113.26,85.783l113.26-85.783c40.411-30.608,64.538-79.147,64.538-129.84V72.233
		L236.164,22.788L58.367,72.233z M213.422,284.315c-2.965,0-5.81-1.177-7.908-3.273l-81.828-81.83
		c-4.367-4.369-4.367-11.449,0-15.814c4.37-4.366,11.449-4.364,15.815,0l73.92,73.921l119.404-119.404
		c4.369-4.366,11.446-4.366,15.815,0c4.367,4.368,4.367,11.448,0,15.813L221.33,281.042
		C219.232,283.138,216.389,284.315,213.422,284.315"/>
</g>
</svg>
