<?xml version="1.0" encoding="utf-8"?>
<!-- Generator: Adobe Illustrator 21.0.0, SVG Export Plug-In . SVG Version: 6.00 Build 0)  -->
<svg version="1.1" id="Capa_1" xmlns="http://www.w3.org/2000/svg" xmlns:xlink="http://www.w3.org/1999/xlink" x="0px" y="0px"
	 viewBox="0 0 465.2 461.8" style="enable-background:new 0 0 465.2 461.8;" xml:space="preserve">
<style type="text/css">
	.st0{clip-path:url(#SVGID_2_);fill:#FFFFFF;}
</style>
<g>
	<g>
		<defs>
			<rect id="SVGID_1_" x="36" width="400.3" height="461.8"/>
		</defs>
		<clipPath id="SVGID_2_">
			<use xlink:href="#SVGID_1_"  style="overflow:visible;"/>
		</clipPath>
		<path class="st0" d="M236.2,461.8c-2.4,0-4.8-0.8-6.8-2.3l-120-90.9C63.4,333.9,36,278.6,36,221V63.7c0-5,3.3-9.4,8.2-10.8
			l189-52.6c2-0.5,4-0.5,6,0l189,52.6c4.8,1.3,8.2,5.8,8.2,10.8V221c0,57.7-27.4,112.9-73.4,147.7l-120,90.9
			C240.9,461.1,238.5,461.8,236.2,461.8 M58.4,72.2V221c0,50.7,24.1,99.2,64.5,129.8l113.3,85.8l113.3-85.8
			C389.8,320.2,414,271.7,414,221V72.2L236.2,22.8L58.4,72.2z M213.4,284.3c-3,0-5.8-1.2-7.9-3.3l-81.8-81.8
			c-4.4-4.4-4.4-11.4,0-15.8c4.4-4.4,11.4-4.4,15.8,0l73.9,73.9l119.4-119.4c4.4-4.4,11.4-4.4,15.8,0c4.4,4.4,4.4,11.4,0,15.8
			L221.3,281C219.2,283.1,216.4,284.3,213.4,284.3"/>
	</g>
</g>
</svg>
