<?xml version="1.0" encoding="utf-8"?>
<!-- Generator: Adobe Illustrator 16.0.0, SVG Export Plug-In . SVG Version: 6.00 Build 0)  -->
<!DOCTYPE svg PUBLIC "-//W3C//DTD SVG 1.1//EN" "http://www.w3.org/Graphics/SVG/1.1/DTD/svg11.dtd">
<svg version="1.1" id="Capa_1" xmlns="http://www.w3.org/2000/svg" xmlns:xlink="http://www.w3.org/1999/xlink" x="0px" y="0px"
	 width="465.199px" height="461.825px" viewBox="0 0 465.199 461.825" enable-background="new 0 0 465.199 461.825"
	 xml:space="preserve">
<g>
	<defs>
		<rect id="SVGID_1_" width="465.199" height="461.825"/>
	</defs>
	<clipPath id="SVGID_2_">
		<use xlink:href="#SVGID_1_"  overflow="visible"/>
	</clipPath>
	<path clip-path="url(#SVGID_2_)" d="M279.591,422.026c-3.836,0.956-7.747,1.805-11.629,2.52
		c-10.148,1.888-16.857,11.647-14.98,21.805c0.927,4.997,3.765,9.159,7.618,11.876c3.971,2.795,9.025,4.057,14.175,3.099
		c4.623-0.857,9.282-1.867,13.854-3.008c10.021-2.494,16.126-12.646,13.626-22.662C299.761,425.63,289.617,419.53,279.591,422.026"
		/>
	<path clip-path="url(#SVGID_2_)" d="M417.887,171.359c1.31,3.948,3.811,7.171,6.97,9.398c4.685,3.299,10.813,4.409,16.662,2.475
		c9.806-3.256,15.119-13.83,11.875-23.631c-1.478-4.468-3.118-8.95-4.865-13.314c-3.836-9.59-14.714-14.259-24.309-10.423
		c-9.585,3.834-14.256,14.715-10.417,24.308C415.271,163.84,416.646,167.605,417.887,171.359"/>
	<path clip-path="url(#SVGID_2_)" d="M340.359,395.325c-3.299,2.178-6.704,4.286-10.134,6.261
		c-8.949,5.162-12.014,16.602-6.854,25.546c1.401,2.434,3.268,4.423,5.416,5.942c5.77,4.059,13.604,4.667,20.128,0.909
		c4.077-2.353,8.133-4.854,12.062-7.452c8.614-5.691,10.985-17.294,5.291-25.912C360.574,391.998,348.977,389.63,340.359,395.325"/>
	<path clip-path="url(#SVGID_2_)" d="M465.021,223.591c-0.407-10.322-9.101-18.356-19.426-17.953
		c-10.313,0.407-18.353,9.104-17.947,19.422c0.155,3.945,0.195,7.949,0.104,11.89c-0.146,6.473,3.021,12.243,7.94,15.711
		c2.932,2.064,6.488,3.313,10.346,3.401c10.321,0.229,18.876-7.958,19.104-18.285C465.246,233.068,465.208,228.297,465.021,223.591"
		/>
	<path clip-path="url(#SVGID_2_)" d="M414.835,346.128c-8.277-6.21-19.987-4.523-26.187,3.738c-2.374,3.164-4.874,6.289-7.434,9.298
		c-6.69,7.86-5.745,19.666,2.115,26.361c0.447,0.38,0.9,0.729,1.37,1.057c7.814,5.509,18.675,4.243,24.992-3.171
		c3.058-3.59,6.037-7.323,8.874-11.102C424.767,364.047,423.089,352.329,414.835,346.128"/>
	<path clip-path="url(#SVGID_2_)" d="M442.324,278.525c-9.854-3.09-20.35,2.396-23.438,12.251
		c-1.183,3.765-2.492,7.548-3.906,11.253c-3.104,8.156-0.13,17.13,6.69,21.939c1.251,0.879,2.629,1.624,4.126,2.189
		c9.648,3.682,20.454-1.159,24.132-10.812c1.679-4.405,3.237-8.906,4.646-13.383C457.659,292.107,452.178,281.615,442.324,278.525"
		/>
	<path clip-path="url(#SVGID_2_)" d="M197.999,424.714c-16.72-3.002-32.759-8.113-47.968-15.243c-0.18-0.095-0.341-0.201-0.53-0.287
		c-3.584-1.688-7.162-3.494-10.63-5.382c-0.012-0.015-0.034-0.023-0.053-0.031c-6.363-3.504-12.573-7.381-18.606-11.628
		C32.24,330.172,11.087,208.184,73.062,120.213c13.476-19.122,29.784-35.075,47.965-47.719c0.224-0.156,0.448-0.311,0.67-0.468
		c64.067-44.144,151.06-47.119,219.088-1.757l-14.61,21.111c-4.063,5.876-1.563,10.158,5.548,9.518l63.467-5.682
		c7.12-0.64,11.378-6.799,9.463-13.675l-17.043-61.406c-1.908-6.884-6.793-7.708-10.858-1.833l-14.646,21.161
		C312.182,5.95,252.303-6.829,192.87,3.478c-5.986,1.036-11.888,2.304-17.709,3.78c-0.045,0.008-0.081,0.013-0.117,0.021
		c-0.225,0.055-0.453,0.128-0.672,0.189C123.122,20.628,78.407,50.52,46.5,93.167c-0.269,0.319-0.546,0.631-0.8,0.978
		c-1.061,1.429-2.114,2.891-3.145,4.353c-1.686,2.396-3.348,4.852-4.938,7.308c-0.199,0.296-0.351,0.597-0.525,0.896
		c-26.33,40.801-39.03,87.971-36.852,135.993c0.005,0.158-0.004,0.317,0,0.479c0.211,4.691,0.583,9.447,1.088,14.13
		c0.027,0.302,0.094,0.588,0.145,0.89c0.522,4.708,1.177,9.427,1.998,14.145c8.344,48.139,31.052,91.455,65.079,125.16
		c0.079,0.079,0.161,0.165,0.241,0.247c0.028,0.031,0.059,0.047,0.086,0.076c9.142,9.017,19.086,17.357,29.793,24.898
		c28.02,19.743,59.221,32.795,92.729,38.808c10.167,1.827,19.879-4.941,21.703-15.104
		C214.925,436.255,208.163,426.535,197.999,424.714"/>
	<path clip-path="url(#SVGID_2_)" d="M221.124,81.51c-8.363,0-15.137,6.78-15.137,15.131v150.747l137.87,71.271
		c2.219,1.149,4.595,1.69,6.934,1.69c5.476,0,10.765-2.982,13.453-8.186c3.835-7.426,0.934-16.549-6.492-20.384l-121.508-62.818
		V96.642C236.242,88.291,229.477,81.51,221.124,81.51"/>
</g>
</svg>
