<?xml version="1.0" encoding="utf-8"?>
<!-- Generator: Adobe Illustrator 21.1.0, SVG Export Plug-In . SVG Version: 6.00 Build 0)  -->
<svg version="1.1" id="Capa_1" xmlns="http://www.w3.org/2000/svg" xmlns:xlink="http://www.w3.org/1999/xlink" x="0px" y="0px"
	 viewBox="0 0 561 561" style="enable-background:new 0 0 561 561;" xml:space="preserve">
<g>
	<g id="loop">
		<path d="M280.5,76.5V0l-102,102l102,102v-76.5c84.1,0,153,68.9,153,153c0,25.5-7.6,51-17.9,71.4l38.3,38.3
			c17.9-33.1,30.6-68.9,30.6-109.6C484.5,168.3,392.7,76.5,280.5,76.5z M280.5,433.5c-84.1,0-153-68.9-153-153
			c0-25.5,7.6-51,17.9-71.4l-38.3-38.3C89.3,204,76.5,239.7,76.5,280.5c0,112.2,91.8,204,204,204V561l102-102l-102-102V433.5z"/>
	</g>
</g>
</svg>
