<?xml version="1.0" encoding="utf-8"?>
<!-- Generator: Adobe Illustrator 21.0.0, SVG Export Plug-In . SVG Version: 6.00 Build 0)  -->
<svg version="1.1" id="Capa_1" xmlns="http://www.w3.org/2000/svg" xmlns:xlink="http://www.w3.org/1999/xlink" x="0px" y="0px"
	 viewBox="0 0 465.2 461.8" style="enable-background:new 0 0 465.2 461.8;" xml:space="preserve">
<style type="text/css">
	.st0{clip-path:url(#SVGID_2_);fill:#2C2F33;}
	.st1{clip-path:url(#SVGID_4_);fill:#2C2F33;}
</style>
<g>
	<g>
		<defs>
			<rect id="SVGID_1_" y="0" width="461.8" height="461.8"/>
		</defs>
		<clipPath id="SVGID_2_">
			<use xlink:href="#SVGID_1_"  style="overflow:visible;"/>
		</clipPath>
		<path class="st0" d="M230.9,0C103.6,0,0,103.6,0,230.9c0,127.3,103.6,230.9,230.9,230.9c127.3,0,230.9-103.6,230.9-230.9
			S358.3,0,230.9,0 M230.9,443.1c-117.1,0-212.2-95.2-212.2-212.2S113.9,18.7,230.9,18.7c117.1,0,212.2,95.2,212.2,212.2
			S348,443.1,230.9,443.1"/>
	</g>
	<g>
		<defs>
			<rect id="SVGID_3_" y="0" width="461.8" height="461.8"/>
		</defs>
		<clipPath id="SVGID_4_">
			<use xlink:href="#SVGID_3_"  style="overflow:visible;"/>
		</clipPath>
		<path class="st1" d="M211.4,154.2c-1.8-1.8-4.2-2.7-6.6-2.7s-4.8,0.9-6.6,2.7c-3.7,3.7-3.7,9.5,0,13.2l63.5,63.5l-63.5,63.5
			c-3.7,3.7-3.7,9.5,0,13.2c3.7,3.7,9.5,3.7,13.2,0l70.1-70.1c3.7-3.7,3.7-9.5,0-13.2L211.4,154.2z"/>
	</g>
</g>
</svg>
