<?xml version="1.0" encoding="utf-8"?>
<!-- Generator: Adobe Illustrator 16.0.0, SVG Export Plug-In . SVG Version: 6.00 Build 0)  -->
<!DOCTYPE svg PUBLIC "-//W3C//DTD SVG 1.1//EN" "http://www.w3.org/Graphics/SVG/1.1/DTD/svg11.dtd">
<svg version="1.1" id="Capa_1" xmlns="http://www.w3.org/2000/svg" xmlns:xlink="http://www.w3.org/1999/xlink" x="0px" y="0px"
	 width="26.125px" height="21.5px" viewBox="0 0 26.125 21.5" enable-background="new 0 0 26.125 21.5" xml:space="preserve">
<path fill="#414BB2" d="M12.916,2.925c-4.224,0-7.66,3.436-7.66,7.66s3.437,7.66,7.66,7.66c4.225,0,7.661-3.436,7.661-7.66
	S17.141,2.925,12.916,2.925 M6.658,10.585c0-3.45,2.809-6.258,6.258-6.258c1.556,0,2.979,0.571,4.073,1.514l-8.816,8.817
	C7.23,13.563,6.658,12.14,6.658,10.585 M12.916,16.843c-1.391,0-2.677-0.457-3.717-1.228l8.747-8.747
	c0.771,1.04,1.228,2.326,1.228,3.718C19.175,14.035,16.366,16.843,12.916,16.843"/>
</svg>
