<?xml version="1.0" encoding="utf-8"?>
<!-- Generator: Adobe Illustrator 16.0.0, SVG Export Plug-In . SVG Version: 6.00 Build 0)  -->
<!DOCTYPE svg PUBLIC "-//W3C//DTD SVG 1.1//EN" "http://www.w3.org/Graphics/SVG/1.1/DTD/svg11.dtd">
<svg version="1.1" id="Capa_1" xmlns="http://www.w3.org/2000/svg" xmlns:xlink="http://www.w3.org/1999/xlink" x="0px" y="0px"
	 width="595.28px" height="595.28px" viewBox="0 0 595.28 595.28" enable-background="new 0 0 595.28 595.28" xml:space="preserve">
<path d="M297.64,59.528c-5.477,0-9.921,4.435-9.921,9.921V297.64h-148.82c-5.477,0-9.922,4.435-9.922,9.921s4.445,9.922,9.922,9.922
	H297.64c5.478,0,9.921-4.436,9.921-9.922V69.449C307.561,63.963,303.117,59.528,297.64,59.528"/>
<rect fill="none" width="595.28" height="595.28"/>
<path d="M307.561,575.26c-3.293,0.116-6.6,0.178-9.921,0.178c-153.175,0-277.797-124.622-277.797-277.797
	c0-153.176,124.622-277.798,277.797-277.798c153.176,0,277.798,124.622,277.798,277.798c0,23.972-3.054,47.244-8.79,69.449h20.451
	c5.348-22.289,8.182-45.544,8.182-69.449C595.28,133.521,461.759,0,297.64,0C133.521,0,0,133.521,0,297.641
	c0,164.118,133.521,297.64,297.64,297.64c3.32,0,6.627-0.058,9.921-0.166V575.26z"/>
<rect x="392" y="348.28" width="195.099" height="18.81"/>
</svg>
