<?xml version="1.0" encoding="utf-8"?>
<!-- Generator: Adobe Illustrator 16.0.0, SVG Export Plug-In . SVG Version: 6.00 Build 0)  -->
<!DOCTYPE svg PUBLIC "-//W3C//DTD SVG 1.1//EN" "http://www.w3.org/Graphics/SVG/1.1/DTD/svg11.dtd">
<svg version="1.1" id="Capa_1" xmlns="http://www.w3.org/2000/svg" xmlns:xlink="http://www.w3.org/1999/xlink" x="0px" y="0px"
	 width="595.28px" height="595.28px" viewBox="0 0 595.28 595.28" enable-background="new 0 0 595.28 595.28" xml:space="preserve">
<g>
	<defs>
		<rect id="SVGID_5_" width="595.28" height="595.28"/>
	</defs>
	<clipPath id="SVGID_2_">
		<use xlink:href="#SVGID_5_"  overflow="visible"/>
	</clipPath>
	<path clip-path="url(#SVGID_2_)" d="M297.64,0C133.521,0,0,133.521,0,297.641c0,164.118,133.521,297.64,297.64,297.64
		c164.119,0,297.641-133.521,297.641-297.64C595.28,133.521,461.759,0,297.64,0 M297.64,575.438
		c-153.175,0-277.797-124.622-277.797-277.797c0-153.176,124.622-277.798,277.797-277.798
		c153.176,0,277.798,124.622,277.798,277.798C575.438,450.815,450.815,575.438,297.64,575.438"/>
	<path clip-path="url(#SVGID_2_)" d="M297.64,59.528c-5.477,0-9.921,4.435-9.921,9.921V297.64h-148.82
		c-5.477,0-9.922,4.435-9.922,9.921s4.445,9.922,9.922,9.922H297.64c5.478,0,9.921-4.436,9.921-9.922V69.449
		C307.561,63.963,303.117,59.528,297.64,59.528"/>
</g>
</svg>
