<?xml version="1.0" encoding="utf-8"?>
<!-- Generator: Adobe Illustrator 16.0.0, SVG Export Plug-In . SVG Version: 6.00 Build 0)  -->
<!DOCTYPE svg PUBLIC "-//W3C//DTD SVG 1.1//EN" "http://www.w3.org/Graphics/SVG/1.1/DTD/svg11.dtd">
<svg version="1.1" id="Capa_1" xmlns="http://www.w3.org/2000/svg" xmlns:xlink="http://www.w3.org/1999/xlink" x="0px" y="0px"
	 width="417.365px" height="417.365px" viewBox="0 0 417.365 417.365" enable-background="new 0 0 417.365 417.365"
	 xml:space="preserve">
<g>
	<defs>
		<rect id="SVGID_1_" width="417.365" height="417.365"/>
	</defs>
	<clipPath id="SVGID_2_">
		<use xlink:href="#SVGID_1_"  overflow="visible"/>
	</clipPath>
	<path clip-path="url(#SVGID_2_)" fill="#2C2F33" d="M208.683,0C93.64,0,0,93.64,0,208.682c0,54.846,21.403,104.951,56.183,142.163
		c0.73,0.973,1.581,1.945,2.554,2.676c37.942,39.28,91.207,63.845,149.945,63.845c115.043,0,208.682-93.64,208.682-208.683
		C417.364,93.64,323.726,0,208.683,0 M86.83,349.75c56.67-18.484,76.614-40.982,83.546-55.575
		c10.458,4.742,22.133,7.175,35.267,7.418h0.851h0.486h0.487h0.851c14.107-0.243,26.754-3.162,37.821-8.635
		c6.445,14.473,25.902,37.821,84.274,56.792c-32.713,28.213-75.275,45.482-121.853,45.482
		C162.105,395.232,119.542,378.085,86.83,349.75 M207.345,279.581h-0.365h-0.364c-19.336-0.243-34.051-6.323-44.996-18.728
		c-27.727-31.132-21.647-90.478-21.647-91.086v-0.729c2.919-64.454,50.59-69.44,65.183-69.44h1.46h0.851h1.459
		c14.472,0,62.143,4.986,65.183,69.44v0.729c0.122,0.608,6.08,59.832-21.646,91.086
		C241.396,273.258,226.681,279.338,207.345,279.581 M348.29,332.238c-80.506-23.349-83.181-51.927-83.181-52.171v0.608h-1.216
		c1.702-1.58,3.405-3.283,4.986-5.107c33.198-37.456,27.727-101.666,27.118-107.746c-3.161-66.643-48.887-90.357-87.193-90.357
		h-1.946h-1.946c-38.185,0-83.911,23.593-87.194,90.235c-0.608,5.959-6.202,70.29,27.119,107.746c2.067,2.312,4.378,4.5,6.567,6.567
		c-1.824,6.081-13.742,30.038-82.573,50.103C39.645,299.16,21.89,255.989,21.89,208.562c0-102.882,83.668-186.671,186.671-186.671
		c103.004,0,186.671,83.667,186.671,186.671C395.354,255.989,377.477,299.282,348.29,332.238"/>
</g>
</svg>
