<?xml version="1.0" encoding="utf-8"?>
<!-- Generator: Adobe Illustrator 16.0.0, SVG Export Plug-In . SVG Version: 6.00 Build 0)  -->
<!DOCTYPE svg PUBLIC "-//W3C//DTD SVG 1.1//EN" "http://www.w3.org/Graphics/SVG/1.1/DTD/svg11.dtd">
<svg version="1.1" id="Capa_1" xmlns="http://www.w3.org/2000/svg" xmlns:xlink="http://www.w3.org/1999/xlink" x="0px" y="0px"
	 width="595.28px" height="595.28px" viewBox="0 0 595.28 595.28" enable-background="new 0 0 595.28 595.28" xml:space="preserve">
<g>
	<defs>
		<rect id="SVGID_1_" width="595.28" height="595.28"/>
	</defs>
	<clipPath id="SVGID_2_">
		<use xlink:href="#SVGID_1_"  overflow="visible"/>
	</clipPath>
	<path clip-path="url(#SVGID_2_)" d="M595.28,297.64C595.28,133.527,461.753,0,297.641,0C133.526,0,0,133.527,0,297.64
		c0,86.684,37.275,164.817,96.608,219.258l-0.281,0.249l9.654,8.139c0.628,0.53,1.31,0.963,1.937,1.483
		c5.131,4.253,10.445,8.291,15.857,12.197c1.753,1.267,3.506,2.532,5.292,3.767c5.78,3.982,11.711,7.76,17.772,11.343
		c1.32,0.779,2.652,1.537,3.983,2.295c6.635,3.777,13.41,7.338,20.348,10.606c0.508,0.237,1.028,0.454,1.537,0.692
		c22.609,10.509,46.745,18.227,71.985,22.783c0.66,0.119,1.321,0.238,1.992,0.357c7.836,1.353,15.758,2.435,23.778,3.16
		c0.975,0.086,1.949,0.141,2.934,0.228c7.987,0.66,16.061,1.082,24.244,1.082c8.105,0,16.104-0.422,24.049-1.061
		c1.007-0.087,2.013-0.141,3.02-0.228c7.955-0.726,15.813-1.775,23.573-3.106c0.671-0.119,1.354-0.237,2.024-0.367
		c24.86-4.46,48.649-12.004,70.968-22.242c0.822-0.379,1.656-0.736,2.478-1.125c6.679-3.14,13.205-6.527,19.602-10.131
		c1.591-0.898,3.172-1.809,4.752-2.738c5.823-3.431,11.548-7.014,17.111-10.824c2.003-1.363,3.962-2.803,5.941-4.23
		c4.752-3.422,9.417-6.949,13.952-10.641c1.006-0.812,2.089-1.515,3.073-2.348l9.904-8.27l-0.294-0.249
		C557.647,463.258,595.28,384.769,595.28,297.64 M21.646,297.64c0-152.186,123.808-275.993,275.994-275.993
		c152.186,0,275.993,123.807,275.993,275.993c0,82.008-35.987,155.736-92.961,206.324c-3.183-2.197-6.387-4.167-9.665-5.812
		l-91.642-45.815c-8.226-4.113-13.334-12.382-13.334-21.571v-32.004c2.121-2.618,4.362-5.585,6.678-8.843
		c11.862-16.754,21.376-35.392,28.314-55.447c13.713-6.516,22.566-20.175,22.566-35.598v-38.368c0-9.384-3.442-18.487-9.601-25.641
		v-50.512c0.563-5.617,2.554-37.319-20.38-63.468c-19.948-22.772-52.233-34.299-95.97-34.299c-43.737,0-76.023,11.527-95.97,34.289
		c-22.935,26.149-20.943,57.85-20.381,63.467v50.512c-6.147,7.155-9.6,16.257-9.6,25.641v38.368
		c0,11.917,5.347,23.032,14.503,30.533c8.767,34.342,26.81,60.339,33.477,69.149v31.322c0,8.832-4.817,16.949-12.577,21.192
		l-85.579,46.681c-2.728,1.482-5.434,3.214-8.14,5.152C57.104,452.326,21.646,379.053,21.646,297.64 M459.545,520.946
		c-3.787,2.749-7.641,5.412-11.548,7.955c-1.797,1.169-3.583,2.338-5.412,3.474c-5.108,3.161-10.304,6.17-15.606,8.984
		c-1.169,0.617-2.35,1.201-3.529,1.807c-12.187,6.245-24.796,11.614-37.751,15.975c-0.455,0.152-0.909,0.314-1.375,0.467
		c-6.786,2.251-13.659,4.253-20.606,5.974c-0.022,0-0.044,0.011-0.065,0.011c-7.014,1.732-14.114,3.171-21.257,4.352
		c-0.195,0.031-0.391,0.076-0.585,0.107c-6.721,1.094-13.496,1.883-20.293,2.479c-1.202,0.107-2.403,0.184-3.615,0.27
		c-6.721,0.509-13.475,0.834-20.261,0.834c-6.862,0-13.703-0.336-20.51-0.845c-1.18-0.086-2.36-0.162-3.529-0.27
		c-6.862-0.606-13.691-1.419-20.456-2.522c-0.303-0.054-0.606-0.108-0.909-0.162c-14.308-2.392-28.389-5.91-42.103-10.51
		c-0.422-0.14-0.855-0.292-1.277-0.434c-6.807-2.315-13.54-4.881-20.153-7.717c-0.043-0.021-0.097-0.043-0.14-0.064
		c-6.256-2.695-12.393-5.683-18.454-8.831c-0.79-0.412-1.591-0.801-2.37-1.224c-5.531-2.954-10.943-6.147-16.278-9.481
		c-1.581-0.995-3.15-2.002-4.709-3.02c-4.913-3.215-9.762-6.559-14.481-10.098c-0.487-0.368-0.953-0.758-1.44-1.126
		c0.347-0.195,0.693-0.39,1.039-0.584l85.58-46.681c14.72-8.031,23.865-23.434,23.865-40.198l-0.01-38.985l-2.49-3.009
		c-0.238-0.271-23.638-28.736-32.48-67.278l-0.985-4.285l-3.691-2.393c-5.206-3.366-8.323-8.994-8.323-15.066v-38.368
		c0-5.033,2.132-9.719,6.028-13.237l3.572-3.225v-60.286l-0.097-1.418c-0.033-0.26-3.226-26.29,15.109-47.189
		c15.65-17.837,42.47-26.896,79.692-26.896c37.08,0,63.813,8.983,79.507,26.69c18.313,20.683,15.315,47.2,15.294,47.417
		l-0.098,61.703l3.571,3.226c3.887,3.506,6.029,8.204,6.029,13.237v38.368c0,7.717-5.25,14.72-12.783,17.047l-5.379,1.656
		l-1.731,5.357c-6.386,19.839-15.478,38.162-27.016,54.463c-2.835,4.005-5.595,7.555-7.965,10.271l-2.685,3.063v40.034
		c0,17.448,9.697,33.142,25.305,40.935l91.641,45.814c0.584,0.292,1.158,0.596,1.732,0.898
		C461.904,519.29,460.715,520.103,459.545,520.946"/>
</g>
</svg>
