<?xml version="1.0" encoding="utf-8"?>
<!-- Generator: Adobe Illustrator 16.0.0, SVG Export Plug-In . SVG Version: 6.00 Build 0)  -->
<!DOCTYPE svg PUBLIC "-//W3C//DTD SVG 1.1//EN" "http://www.w3.org/Graphics/SVG/1.1/DTD/svg11.dtd">
<svg version="1.1" id="Capa_1" xmlns="http://www.w3.org/2000/svg" xmlns:xlink="http://www.w3.org/1999/xlink" x="0px" y="0px"
	 width="544px" height="448.083px" viewBox="0 0 544 448.083" enable-background="new 0 0 544 448.083" xml:space="preserve">
<g>
	<defs>
		<rect id="SVGID_1_" width="544" height="448.083"/>
	</defs>
	<clipPath id="SVGID_2_">
		<use xlink:href="#SVGID_1_"  overflow="visible"/>
	</clipPath>
	<path clip-path="url(#SVGID_2_)" d="M445.02,429.061c-6.143,0-12.282-2.342-16.971-7.027c-9.371-9.373-9.371-24.567,0-33.94
		C471.867,344.271,496,286.014,496,224.042c0-61.969-24.133-120.229-67.951-164.049c-9.371-9.373-9.371-24.569,0-33.941
		c9.373-9.372,24.568-9.372,33.941,0C514.875,78.938,544,149.252,544,224.043c0,74.791-29.125,145.104-82.01,197.99
		C457.305,426.719,451.162,429.061,445.02,429.061 M359.766,383.807c-6.145,0-12.282-2.345-16.971-7.028
		c-9.373-9.372-9.373-24.567,0-33.939c65.502-65.505,65.502-172.085,0-237.588c-9.373-9.373-9.373-24.569,0-33.941
		c9.371-9.371,24.568-9.372,33.939,0C417.531,112.104,440,166.345,440,224.042c0,57.696-22.469,111.938-63.266,152.735
		C372.049,381.462,365.906,383.807,359.766,383.807 M274.51,338.551c-6.143,0-12.284-2.343-16.971-7.028
		c-9.373-9.373-9.373-24.567,0-33.94c40.551-40.549,40.551-106.528,0-147.078c-9.373-9.373-9.373-24.569,0-33.941
		s24.568-9.372,33.941,0c59.264,59.265,59.264,155.696,0,214.961C286.794,336.208,280.652,338.551,274.51,338.551 M200.666,7.375
		C213.5-5.458,224-1.108,224,17.042v414c0,18.15-10.5,22.5-23.334,9.666L80,320.041H0v-192h80L200.666,7.375z"/>
</g>
</svg>
